<svg width="134" height="14" viewBox="0 0 134 14" fill="none" xmlns="http://www.w3.org/2000/svg">
<path d="M2.16 13.3999H1.49012e-08V-9.799e-05H2.16V13.3999ZM10.42 13.3999H0.64V11.4599H10.42V13.3999ZM15.9564 13.5999C15.0231 13.5999 14.2497 13.4132 13.6364 13.0399C13.0231 12.6666 12.5631 12.1666 12.2564 11.5399C11.9497 10.9132 11.7964 10.2132 11.7964 9.4399V3.4599H13.9364V8.8599C13.9364 9.7799 14.1631 10.4799 14.6164 10.9599C15.0831 11.4266 15.8431 11.6599 16.8964 11.6599C18.0031 11.6599 18.8097 11.3866 19.3164 10.8399C19.8364 10.2799 20.0964 9.4599 20.0964 8.3799L20.4764 8.3599L20.5964 10.3199H20.1364C20.0431 10.8799 19.8297 11.4066 19.4964 11.8999C19.1631 12.3932 18.7031 12.7999 18.1164 13.1199C17.5431 13.4399 16.8231 13.5999 15.9564 13.5999ZM22.2564 13.3999H20.2764V10.2799L20.0964 10.1799V3.4599H22.2564V13.3999ZM25.8587 13.3999H23.2788L27.5588 8.4799V8.3599L23.2788 3.4599H25.8988L29.1988 7.2199H29.3188L32.5788 3.4599H35.1788L30.8988 8.3199V8.4399L35.1788 13.3999H32.5588L29.2588 9.5999H29.1188L25.8587 13.3999ZM40.3705 13.5999C39.4371 13.5999 38.6638 13.4132 38.0505 13.0399C37.4371 12.6666 36.9771 12.1666 36.6705 11.5399C36.3638 10.9132 36.2105 10.2132 36.2105 9.4399V3.4599H38.3505V8.8599C38.3505 9.7799 38.5771 10.4799 39.0305 10.9599C39.4971 11.4266 40.2571 11.6599 41.3105 11.6599C42.4171 11.6599 43.2238 11.3866 43.7305 10.8399C44.2505 10.2799 44.5105 9.4599 44.5105 8.3799L44.8905 8.3599L45.0105 10.3199H44.5505C44.4571 10.8799 44.2438 11.4066 43.9105 11.8999C43.5771 12.3932 43.1171 12.7999 42.5305 13.1199C41.9571 13.4399 41.2371 13.5999 40.3705 13.5999ZM46.6705 13.3999H44.6905V10.2799L44.5105 10.1799V3.4599H46.6705V13.3999ZM50.7928 13.3999H48.6328V3.4599H50.6128V6.2799L50.7928 6.3799V13.3999ZM50.7928 7.8199H50.3128V6.1399H50.7528C50.8461 5.59324 51.0328 5.10657 51.3128 4.6799C51.5928 4.2399 51.9661 3.89324 52.4328 3.6399C52.9128 3.38657 53.4928 3.2599 54.1728 3.2599C54.9328 3.2599 55.5528 3.4199 56.0328 3.7399C56.5128 4.0599 56.8595 4.48657 57.0728 5.0199C57.2995 5.55324 57.4128 6.13324 57.4128 6.7599V8.0599H55.2728V7.1799C55.2728 6.4599 55.1128 5.93324 54.7928 5.5999C54.4728 5.26657 53.9395 5.0999 53.1928 5.0999C52.3395 5.0999 51.7261 5.33324 51.3528 5.7999C50.9795 6.26657 50.7928 6.9399 50.7928 7.8199ZM63.7695 13.5999C62.6895 13.5999 61.7429 13.3999 60.9295 12.9999C60.1162 12.5999 59.4829 12.0132 59.0295 11.2399C58.5895 10.4666 58.3695 9.53324 58.3695 8.4399C58.3695 7.3999 58.5895 6.49324 59.0295 5.7199C59.4829 4.94657 60.1095 4.34657 60.9095 3.9199C61.7095 3.4799 62.6495 3.2599 63.7295 3.2599C64.7562 3.2599 65.6562 3.44657 66.4295 3.8199C67.2162 4.1799 67.8229 4.71324 68.2495 5.4199C68.6895 6.11324 68.9095 6.96657 68.9095 7.9799C68.9095 8.15324 68.9029 8.3199 68.8895 8.4799C68.8762 8.62657 68.8562 8.77324 68.8295 8.9199H59.7495V7.7199H67.4095L66.8495 8.4599C66.8629 8.32657 66.8695 8.1999 66.8695 8.0799C66.8695 7.94657 66.8695 7.81324 66.8695 7.6799C66.8695 6.7599 66.6029 6.0799 66.0695 5.6399C65.5495 5.18657 64.7562 4.9599 63.6895 4.9599C62.5029 4.9599 61.6562 5.23324 61.1495 5.7799C60.6429 6.32657 60.3895 7.11324 60.3895 8.1399V8.6599C60.3895 9.6999 60.6429 10.4932 61.1495 11.0399C61.6562 11.5866 62.5095 11.8599 63.7095 11.8599C64.7495 11.8599 65.4962 11.6999 65.9495 11.3799C66.4162 11.0466 66.6495 10.5866 66.6495 9.9999V9.8399H68.8095V10.0199C68.8095 10.7266 68.5895 11.3532 68.1495 11.8999C67.7229 12.4332 67.1295 12.8532 66.3695 13.1599C65.6229 13.4532 64.7562 13.5999 63.7695 13.5999ZM76.7473 13.3999H71.3473V11.4599H76.7473C77.7873 11.4599 78.634 11.3066 79.2873 10.9999C79.954 10.6799 80.4473 10.1732 80.7673 9.4799C81.0873 8.77324 81.2473 7.84657 81.2473 6.6999C81.2473 5.5399 81.0873 4.61324 80.7673 3.9199C80.4473 3.22657 79.954 2.72657 79.2873 2.4199C78.634 2.0999 77.7873 1.9399 76.7473 1.9399H71.3473V-9.799e-05H76.7473C78.1473 -9.799e-05 79.3473 0.273235 80.3473 0.819902C81.3607 1.35324 82.1407 2.1199 82.6873 3.1199C83.2473 4.1199 83.5273 5.31324 83.5273 6.6999C83.5273 8.08657 83.2473 9.2799 82.6873 10.2799C82.1407 11.2799 81.3607 12.0532 80.3473 12.5999C79.3473 13.1332 78.1473 13.3999 76.7473 13.3999ZM72.7873 13.3999H70.6473V-9.799e-05H72.7873V13.3999ZM90.1367 13.5999C89.0567 13.5999 88.1101 13.3999 87.2967 12.9999C86.4834 12.5999 85.8501 12.0132 85.3967 11.2399C84.9567 10.4666 84.7367 9.53324 84.7367 8.4399C84.7367 7.3999 84.9567 6.49324 85.3967 5.7199C85.8501 4.94657 86.4767 4.34657 87.2767 3.9199C88.0767 3.4799 89.0167 3.2599 90.0967 3.2599C91.1234 3.2599 92.0234 3.44657 92.7967 3.8199C93.5834 4.1799 94.1901 4.71324 94.6167 5.4199C95.0567 6.11324 95.2767 6.96657 95.2767 7.9799C95.2767 8.15324 95.2701 8.3199 95.2567 8.4799C95.2434 8.62657 95.2234 8.77324 95.1967 8.9199H86.1167V7.7199H93.7767L93.2167 8.4599C93.2301 8.32657 93.2367 8.1999 93.2367 8.0799C93.2367 7.94657 93.2367 7.81324 93.2367 7.6799C93.2367 6.7599 92.9701 6.0799 92.4367 5.6399C91.9167 5.18657 91.1234 4.9599 90.0567 4.9599C88.8701 4.9599 88.0234 5.23324 87.5167 5.7799C87.0101 6.32657 86.7567 7.11324 86.7567 8.1399V8.6599C86.7567 9.6999 87.0101 10.4932 87.5167 11.0399C88.0234 11.5866 88.8767 11.8599 90.0767 11.8599C91.1167 11.8599 91.8634 11.6999 92.3167 11.3799C92.7834 11.0466 93.0167 10.5866 93.0167 9.9999V9.8399H95.1767V10.0199C95.1767 10.7266 94.9567 11.3532 94.5167 11.8999C94.0901 12.4332 93.4967 12.8532 92.7367 13.1599C91.9901 13.4532 91.1234 13.5999 90.1367 13.5999ZM103.415 13.3999H101.135C100.068 13.3999 99.2212 13.1399 98.5945 12.6199C97.9812 12.0999 97.6745 11.2399 97.6745 10.0399V1.2799H99.8145V9.9199C99.8145 10.5332 99.9612 10.9466 100.255 11.1599C100.548 11.3599 101.001 11.4599 101.615 11.4599H103.415V13.3999ZM103.415 5.2599H95.9945V3.4599H103.415V5.2599ZM114.166 13.3999H112.186V10.8399L112.046 10.7799V7.3799C112.046 6.55324 111.846 5.9799 111.446 5.6599C111.059 5.32657 110.386 5.1599 109.426 5.1599C108.506 5.1599 107.819 5.3199 107.366 5.6399C106.912 5.9599 106.686 6.48657 106.686 7.2199V7.2999H104.546V7.2199C104.546 6.4599 104.746 5.78657 105.146 5.1999C105.546 4.5999 106.119 4.12657 106.866 3.7799C107.626 3.43324 108.532 3.2599 109.586 3.2599C110.639 3.2599 111.499 3.4399 112.166 3.7999C112.846 4.14657 113.346 4.62657 113.666 5.2399C113.999 5.85324 114.166 6.5599 114.166 7.3599V13.3999ZM107.686 13.5999C106.659 13.5999 105.839 13.3732 105.226 12.9199C104.626 12.4532 104.326 11.8132 104.326 10.9999C104.326 10.4799 104.452 10.0466 104.706 9.6999C104.972 9.3399 105.346 9.0599 105.826 8.8599C106.306 8.6599 106.872 8.5199 107.526 8.4399L112.246 7.9399V9.2199L108.146 9.6799C107.586 9.74657 107.166 9.86657 106.886 10.0399C106.619 10.1999 106.486 10.4732 106.486 10.8599C106.486 11.2599 106.626 11.5599 106.906 11.7599C107.199 11.9466 107.652 12.0399 108.266 12.0399C109.026 12.0399 109.686 11.9466 110.246 11.7599C110.806 11.5599 111.246 11.2532 111.566 10.8399C111.886 10.4266 112.046 9.89324 112.046 9.2399L112.326 9.2799V10.9199H112.046C111.779 11.7599 111.266 12.4199 110.506 12.8999C109.759 13.3666 108.819 13.5999 107.686 13.5999ZM118.254 13.3999H116.094V3.4599H118.254V13.3999ZM118.254 2.2999H116.094V-9.799e-05H118.254V2.2999ZM122.414 13.3999H120.254V-9.799e-05H122.414V13.3999ZM129.114 13.5999C127.514 13.5999 126.274 13.2932 125.394 12.6799C124.527 12.0666 124.094 11.1866 124.094 10.0399V9.9799H126.254V10.1399C126.254 10.7932 126.467 11.2466 126.894 11.4999C127.334 11.7399 128.074 11.8599 129.114 11.8599C130.087 11.8599 130.747 11.7599 131.094 11.5599C131.454 11.3466 131.634 11.0199 131.634 10.5799C131.634 10.1666 131.494 9.87324 131.214 9.6999C130.947 9.52657 130.454 9.39324 129.734 9.2999L127.014 8.9399C126.067 8.8199 125.327 8.55324 124.794 8.1399C124.261 7.71324 123.994 7.0799 123.994 6.2399C123.994 5.65324 124.167 5.1399 124.514 4.6999C124.861 4.24657 125.381 3.89324 126.074 3.6399C126.767 3.38657 127.621 3.2599 128.634 3.2599C129.647 3.2599 130.514 3.39324 131.234 3.6599C131.967 3.92657 132.527 4.32657 132.914 4.8599C133.314 5.39324 133.514 6.05324 133.514 6.8399V6.8999H131.374V6.7799C131.374 6.39324 131.294 6.06657 131.134 5.7999C130.974 5.53324 130.687 5.33324 130.274 5.1999C129.874 5.05324 129.307 4.9799 128.574 4.9799C127.654 4.9799 127.014 5.08657 126.654 5.2999C126.294 5.51324 126.114 5.85324 126.114 6.3199C126.114 6.70657 126.247 6.98657 126.514 7.1599C126.781 7.33324 127.281 7.47324 128.014 7.5799L130.314 7.8999C131.487 8.04657 132.354 8.33324 132.914 8.7599C133.474 9.18657 133.754 9.81324 133.754 10.6399C133.754 11.2532 133.561 11.7866 133.174 12.2399C132.787 12.6799 132.247 13.0199 131.554 13.2599C130.861 13.4866 130.047 13.5999 129.114 13.5999Z" fill="white"/>
</svg>
